<svg width="150" height="150" viewBox="0 0 150 150" fill="none" xmlns="http://www.w3.org/2000/svg">
<path d="M68.75 109.375C68.7381 101.622 70.9553 94.0285 75.1375 87.5H32.825C29.0987 87.5033 25.526 88.9855 22.8916 91.621C20.2573 94.2565 18.7767 97.8299 18.775 101.556V107.306C18.775 110.881 19.8875 114.369 21.9625 117.281C31.6 130.806 47.375 137.5 68.75 137.5C72.5 137.5 76.0771 137.294 79.4813 136.881C72.5704 129.389 68.7385 119.567 68.75 109.375ZM68.75 12.5312C77.038 12.5312 84.9866 15.8237 90.8471 21.6842C96.7076 27.5447 100 35.4932 100 43.7813C100 52.0693 96.7076 60.0178 90.8471 65.8783C84.9866 71.7389 77.038 75.0313 68.75 75.0313C60.462 75.0313 52.5135 71.7389 46.6529 65.8783C40.7924 60.0178 37.5 52.0693 37.5 43.7813C37.5 35.4932 40.7924 27.5447 46.6529 21.6842C52.5135 15.8237 60.462 12.5313 68.75 12.5312ZM143.75 109.375C143.75 118.492 140.128 127.235 133.682 133.682C127.235 140.128 118.492 143.75 109.375 143.75C100.258 143.75 91.5148 140.128 85.0682 133.682C78.6217 127.235 75 118.492 75 109.375C75 100.258 78.6217 91.5148 85.0682 85.0682C91.5148 78.6216 100.258 75 109.375 75C118.492 75 127.235 78.6216 133.682 85.0682C140.128 91.5148 143.75 100.258 143.75 109.375ZM84.375 109.375C84.375 116.005 87.0089 122.364 91.6974 127.053C96.3858 131.741 102.745 134.375 109.375 134.375C116.005 134.375 122.364 131.741 127.053 127.053C131.741 122.364 134.375 116.005 134.375 109.375C134.375 102.745 131.741 96.3857 127.053 91.6973C122.364 87.0089 116.005 84.375 109.375 84.375C102.745 84.375 96.3858 87.0089 91.6974 91.6973C87.0089 96.3857 84.375 102.745 84.375 109.375ZM115.625 96.875C115.625 98.5326 114.967 100.122 113.794 101.294C112.622 102.467 111.033 103.125 109.375 103.125C107.717 103.125 106.128 102.467 104.956 101.294C103.784 100.122 103.125 98.5326 103.125 96.875C103.125 95.2174 103.784 93.6277 104.956 92.4556C106.128 91.2835 107.717 90.625 109.375 90.625C111.033 90.625 112.622 91.2835 113.794 92.4556C114.967 93.6277 115.625 95.2174 115.625 96.875ZM114.063 112.5C114.063 111.257 113.569 110.065 112.69 109.185C111.811 108.306 110.618 107.813 109.375 107.813C108.132 107.813 106.94 108.306 106.06 109.185C105.181 110.065 104.688 111.257 104.688 112.5V123.438C104.688 124.681 105.181 125.873 106.06 126.752C106.94 127.631 108.132 128.125 109.375 128.125C110.618 128.125 111.811 127.631 112.69 126.752C113.569 125.873 114.063 124.681 114.063 123.438V112.5Z" fill="black"/>
</svg>
