<svg width="118" height="118" viewBox="0 0 118 118" fill="none" xmlns="http://www.w3.org/2000/svg">
<path d="M113.083 83.5832C113.083 99.8573 99.8575 113.083 83.5833 113.083V105.708C95.875 105.708 105.708 95.8748 105.708 83.5832H113.083ZM4.91667 34.4165C4.91667 18.1423 18.1425 4.9165 34.4167 4.9165V12.2915C22.125 12.2915 12.2917 22.1248 12.2917 34.4165H4.91667ZM39.3333 21.2398L16.7658 43.8565C0.934173 59.6882 0.934173 85.4023 16.7658 101.234C32.5975 117.066 58.3117 117.066 74.1433 101.234L108.904 66.3748C111.313 64.064 111.313 60.1798 108.904 57.7707C108.333 57.1983 107.655 56.7442 106.908 56.4344C106.162 56.1246 105.361 55.9651 104.553 55.9651C103.745 55.9651 102.944 56.1246 102.197 56.4344C101.451 56.7442 100.773 57.1983 100.202 57.7707L78.47 79.5023L74.9792 76.0115L107.134 43.8565C109.543 41.4473 109.543 37.5632 107.134 35.154C104.725 32.7448 100.792 32.7448 98.3333 35.154L69.7675 63.9165L66.375 60.3273L100.153 26.4515C102.562 24.0423 102.562 20.1582 100.153 17.749C97.7433 15.3398 93.8592 15.3398 91.45 17.749L57.5742 51.6248L54.0833 48.1832L81.125 21.2398C83.5833 18.8307 83.5833 14.9465 81.125 12.5373C78.6667 10.1282 74.8317 10.1282 72.4225 12.5373L34.9575 50.0023C37.894 53.7851 39.3495 58.5094 39.0508 63.2889C38.752 68.0683 36.7197 72.5746 33.335 75.9623L29.8442 72.4715C32.6064 69.7059 34.1579 65.9569 34.1579 62.0482C34.1579 58.1394 32.6064 54.3905 29.8442 51.6248L28.1233 49.904L48.1342 29.8932C50.5433 27.484 50.5433 23.5998 48.1342 21.1907C45.6758 18.8307 41.7917 18.8307 39.3333 21.2398Z" fill="black"/>
</svg>
