<svg width="151" height="151" viewBox="0 0 151 151" fill="none" xmlns="http://www.w3.org/2000/svg">
<path d="M25.1667 144.708L37.75 88.0834H47.3448L34.7614 144.708H25.1667ZM44.0417 144.708L61.6583 55.9959L50.3333 60.4V81.7917H37.75V52.2209L69.5229 38.6938C72.5639 37.4355 75.6573 37.3054 78.8031 38.3037C81.9489 39.302 84.4132 41.2147 86.1958 44.0417L92.4875 54.1084C95.2139 58.5125 98.9113 62.1302 103.58 64.9615C108.248 67.7927 113.569 69.2084 119.542 69.2084V81.7917C112.621 81.7917 106.145 80.3509 100.113 77.4693C94.0814 74.5877 89.0229 70.7855 84.9375 66.0625L81.1625 84.9375L94.375 97.5209V144.708H81.7917V106.958L68.5792 94.375L57.2542 144.708H44.0417ZM84.9375 34.6042C81.4771 34.6042 78.5158 33.3731 76.0537 30.911C73.5915 28.4489 72.3583 25.4855 72.3542 22.0209C72.35 18.5563 73.5831 15.595 76.0537 13.137C78.5242 10.6791 81.4855 9.44593 84.9375 9.43754C88.3895 9.42915 91.3529 10.6623 93.8276 13.137C96.3023 15.6118 97.5334 18.573 97.5208 22.0209C97.5082 25.4687 96.2772 28.4321 93.8276 30.911C91.3781 33.3899 88.4147 34.621 84.9375 34.6042ZM110.104 144.708V88.0834H119.542V144.708H110.104Z" fill="black"/>
</svg>
