<svg width="134" height="134" viewBox="0 0 134 134" fill="none" xmlns="http://www.w3.org/2000/svg">
<path d="M117.25 58.625H75.375V50.25H117.25V58.625ZM75.375 75.375H100.5V83.75H75.375V75.375ZM54.0449 70.1406C56.0514 71.2747 57.8398 72.627 59.4102 74.1973C60.9805 75.7676 62.3327 77.4906 63.4668 79.3662C64.6009 81.2419 65.4733 83.2702 66.084 85.4512C66.6947 87.6322 67 89.8568 67 92.125H58.625C58.625 89.8131 58.1888 87.654 57.3164 85.6475C56.444 83.641 55.2445 81.8525 53.7178 80.2822C52.1911 78.7119 50.4245 77.5124 48.418 76.6836C46.4115 75.8548 44.2305 75.4186 41.875 75.375C39.5632 75.375 37.404 75.8112 35.3975 76.6836C33.3909 77.556 31.6025 78.7555 30.0322 80.2822C28.4619 81.8089 27.2624 83.5755 26.4336 85.582C25.6048 87.5885 25.1686 89.7695 25.125 92.125H16.75C16.75 89.8568 17.0553 87.654 17.666 85.5166C18.2767 83.3792 19.1273 81.3509 20.2178 79.4316C21.3083 77.5124 22.6605 75.7676 24.2744 74.1973C25.8883 72.627 27.6986 71.2747 29.7051 70.1406C28.2656 68.6139 27.1533 66.8473 26.3682 64.8408C25.583 62.8343 25.1686 60.7624 25.125 58.625C25.125 56.3132 25.5612 54.154 26.4336 52.1475C27.306 50.1409 28.5055 48.3525 30.0322 46.7822C31.5589 45.2119 33.3255 44.0124 35.332 43.1836C37.3385 42.3548 39.5195 41.9186 41.875 41.875C44.1868 41.875 46.346 42.3112 48.3525 43.1836C50.3591 44.056 52.1475 45.2555 53.7178 46.7822C55.2881 48.3089 56.4876 50.0755 57.3164 52.082C58.1452 54.0885 58.5814 56.2695 58.625 58.625C58.625 60.7624 58.2324 62.8343 57.4473 64.8408C56.6621 66.8473 55.528 68.6139 54.0449 70.1406ZM33.5 58.625C33.5 59.8027 33.7181 60.8932 34.1543 61.8965C34.5905 62.8997 35.1794 63.7721 35.9209 64.5137C36.6624 65.2552 37.5566 65.8659 38.6035 66.3457C39.6504 66.8255 40.7409 67.0436 41.875 67C43.0527 67 44.1432 66.7819 45.1465 66.3457C46.1497 65.9095 47.0221 65.3206 47.7637 64.5791C48.5052 63.8376 49.1159 62.9434 49.5957 61.8965C50.0755 60.8496 50.2936 59.7591 50.25 58.625C50.25 57.4473 50.0319 56.3568 49.5957 55.3535C49.1595 54.3503 48.5706 53.4779 47.8291 52.7363C47.0876 51.9948 46.1934 51.3841 45.1465 50.9043C44.0996 50.4245 43.0091 50.2064 41.875 50.25C40.6973 50.25 39.6068 50.4681 38.6035 50.9043C37.6003 51.3405 36.7279 51.9294 35.9863 52.6709C35.2448 53.4124 34.6341 54.3066 34.1543 55.3535C33.6745 56.4004 33.4564 57.4909 33.5 58.625ZM113.128 92.3213L133.869 113.062L113.128 133.804L107.174 127.915L117.839 117.25H74.7861L85.4512 127.915L79.4971 133.804L58.7559 113.062L79.4971 92.3213L85.4512 98.21L74.7861 108.875H117.839L107.174 98.21L113.128 92.3213ZM134 16.75V96.3125L125.625 87.9375V25.125H8.375V108.875H50.25V117.25H0V16.75H134Z" fill="black"/>
</svg>
