<svg width="176" height="176" viewBox="0 0 176 176" fill="none" xmlns="http://www.w3.org/2000/svg">
<path d="M132 95.3335V80.6668H161.333V95.3335H132ZM140.8 146.667L117.333 129.067L126.133 117.334L149.6 134.934L140.8 146.667ZM126.133 58.6668L117.333 46.9335L140.8 29.3335L149.6 41.0668L126.133 58.6668ZM36.6667 139.334V110H29.3333C25.3 110 21.8484 108.565 18.9787 105.696C16.1089 102.826 14.6715 99.3717 14.6667 95.3335V80.6668C14.6667 76.6335 16.104 73.1819 18.9787 70.3122C21.8533 67.4424 25.3049 66.0051 29.3333 66.0002H58.6667L95.3333 44.0002V132L58.6667 110H51.3333V139.334H36.6667ZM80.6667 105.967V70.0335L62.7 80.6668H29.3333V95.3335H62.7L80.6667 105.967ZM102.667 112.567V63.4335C105.967 66.3668 108.626 69.9431 110.645 74.1622C112.664 78.3813 113.672 82.9939 113.667 88.0002C113.662 93.0064 112.652 97.6215 110.638 101.845C108.624 106.069 105.967 109.643 102.667 112.567Z" fill="black"/>
</svg>
