<svg width="168" height="168" viewBox="0 0 168 168" fill="none" xmlns="http://www.w3.org/2000/svg">
<path d="M91 43.7502C91 45.6067 90.2625 47.3872 88.9497 48.7C87.637 50.0127 85.8565 50.7502 84 50.7502C82.1435 50.7502 80.363 50.0127 79.0503 48.7C77.7375 47.3872 77 45.6067 77 43.7502C77 41.8937 77.7375 40.1132 79.0503 38.8005C80.363 37.4877 82.1435 36.7502 84 36.7502C85.8565 36.7502 87.637 37.4877 88.9497 38.8005C90.2625 40.1132 91 41.8937 91 43.7502ZM91.224 16.2752C89.1267 14.7438 86.5969 13.9185 84 13.9185C81.4031 13.9185 78.8733 14.7438 76.776 16.2752L24.829 54.1802C17.983 59.1712 21.518 70.0002 29.981 70.0002H31.5V110.6C28.3391 112.213 25.6856 114.669 23.8326 117.695C21.9796 120.722 20.9993 124.201 21 127.75V138.25C21 141.141 23.352 143.5 26.25 143.5H141.75C143.142 143.5 144.478 142.947 145.462 141.963C146.447 140.978 147 139.643 147 138.25V127.75C147.001 124.201 146.02 120.722 144.167 117.695C142.314 114.669 139.661 112.213 136.5 110.6V70.0002H138.019C146.489 70.0002 150.01 59.1712 143.171 54.1802L91.224 16.2752ZM82.964 24.7522C83.2637 24.5332 83.6253 24.4152 83.9965 24.4152C84.3677 24.4152 84.7293 24.5332 85.029 24.7522L132.65 59.5002H35.35L82.964 24.7522ZM126 70.0002V108.5H112V70.0002H126ZM101.5 70.0002V108.5H89.25V70.0002H101.5ZM78.75 70.0002V108.5H66.5V70.0002H78.75ZM40.25 119H127.75C132.58 119 136.5 122.92 136.5 127.75V133H31.5V127.75C31.5 122.92 35.42 119 40.25 119ZM42 108.5V70.0002H56V108.5H42Z" fill="black"/>
</svg>
